# xmcd CD database file
#
# Track frame offsets:
#	150
#	13461
#	23997
#	47851
#	60792
#	76561
#	90043
#	109907
#	122152
#	141225
#	160417
#	174310
#
# Disc length: 2491 seconds
#
# Revision: 1
# Processed by: cddbd v1.5.2PL0 Copyright (c) Steve Scherf et al.
# Submitted via: CDex 1.70beta2
#
DISCID=8e09b90c
DTITLE=Various Artist - The World of Dixieland Vol.2 CD 1
DYEAR=1900
DGENRE=Jazz
TTITLE0=01 Firehouse Five plus Two - Five Foot Two
TTITLE1=02 The New Orleans Rhythm Kings - Bugle Call Rag
TTITLE2=03 Kid Ory - Original Dixieland One-Step
TTITLE3=04 Lu Waters Yerba Buena Jazz Band - Canal Street Blues
TTITLE4=05 Bob Scobeys Frisco Band - Ostrich Walk
TTITLE5=06 Turk Murphys Jazz Band - Struttin With Some Barbecue
TTITLE6=07 Sweet Emma Barrett - Bill Balley
TTITLE7=08 Firehouse Five Plus Two - Petite Fleur
TTITLE8=09 George Lewis - Burgundy Street Blues
TTITLE9=10 Bill Matthews and His New Orleans Dixieland Band - Walk Tru The Streets Of The City
TTITLE10=11 Sharkey Bonano and His Of Dixieland - Second Line
TTITLE11=12 Bunny Berigan - I'm Comimg Virginia
EXTD=
EXTT0=
EXTT1=
EXTT2=
EXTT3=
EXTT4=
EXTT5=
EXTT6=
EXTT7=
EXTT8=
EXTT9=
EXTT10=
EXTT11=
PLAYORDER=
